<svg width="351" height="68" xmlns="http://www.w3.org/2000/svg" xmlns:xlink="http://www.w3.org/1999/xlink" overflow="hidden"><defs><clipPath id="clip0"><rect x="57" y="156" width="351" height="68"/></clipPath></defs><g clip-path="url(#clip0)" transform="translate(-57 -156)"><path d="M139.406 35.4197C139.271 35.3619 139.156 35.3427 139.021 35.3427 138.886 35.3427 138.751 35.3619 138.636 35.4197 138.501 35.4775 138.405 35.5353 138.308 35.6316 138.212 35.7279 138.154 35.8242 138.096 35.959 138.039 36.0938 138.019 36.2094 138.019 36.3442 138.019 36.479 138.039 36.6139 138.096 36.7294 138.154 36.845 138.212 36.9605 138.308 37.0568 138.405 37.1531 138.501 37.2109 138.636 37.2687 138.751 37.3265 138.886 37.3457 139.021 37.3457 139.156 37.3457 139.291 37.3265 139.406 37.2687 139.522 37.2109 139.637 37.1531 139.734 37.0568 139.83 36.9605 139.888 36.8642 139.945 36.7294 140.003 36.6139 140.022 36.479 140.022 36.3442 140.022 36.2094 140.003 36.0746 139.945 35.959 139.888 35.8434 139.83 35.7279 139.734 35.6316 139.637 35.5353 139.541 35.4775 139.406 35.4197Z" fill="#FFFFFF" transform="matrix(1 0 0 1.00278 57 156.007)"/><path d="M148.073 30.4891C147.707 30.1424 147.264 29.8728 146.764 29.6801 146.263 29.4875 145.704 29.4105 145.107 29.4105 144.51 29.4105 143.952 29.5068 143.451 29.6801 142.95 29.8728 142.507 30.1424 142.141 30.4891 141.775 30.8358 141.486 31.2595 141.274 31.7603 141.063 32.261 140.966 32.8196 140.966 33.4166 140.966 34.0137 141.063 34.5915 141.274 35.073 141.486 35.5738 141.775 35.9975 142.141 36.3442 142.507 36.6909 142.95 36.9605 143.451 37.1531 143.952 37.3457 144.51 37.4421 145.107 37.4421 145.704 37.4421 146.263 37.3457 146.764 37.1531 147.264 36.9605 147.707 36.6909 148.073 36.3442 148.439 35.9975 148.728 35.5738 148.94 35.073 149.152 34.5723 149.248 34.0137 149.248 33.4166 149.248 32.8196 149.152 32.2418 148.94 31.7603 148.728 31.2595 148.439 30.8358 148.073 30.4891ZM147.322 34.4182C147.207 34.7071 147.053 34.9767 146.841 35.1886 146.629 35.4005 146.378 35.5738 146.089 35.7086 145.801 35.8242 145.473 35.9012 145.107 35.9012 144.741 35.9012 144.414 35.8434 144.125 35.7086 143.836 35.5738 143.586 35.4197 143.374 35.1886 143.162 34.9767 143.008 34.7071 142.892 34.4182 142.777 34.11 142.719 33.7826 142.719 33.4359 142.719 33.0892 142.777 32.7618 142.892 32.4536 143.008 32.1455 143.162 31.8951 143.374 31.664 143.586 31.4521 143.836 31.2788 144.125 31.1439 144.414 31.0284 144.741 30.9513 145.107 30.9513 145.473 30.9513 145.801 31.0091 146.089 31.1439 146.378 31.2788 146.629 31.4328 146.841 31.664 147.053 31.8758 147.207 32.1455 147.322 32.4536 147.438 32.7618 147.495 33.0892 147.495 33.4359 147.495 33.7826 147.438 34.1293 147.322 34.4182Z" fill="#FFFFFF" transform="matrix(1 0 0 1.00278 57 156.007)"/><path d="M151.925 35.6316C151.829 35.5353 151.733 35.4775 151.598 35.4197 151.463 35.3619 151.348 35.3427 151.213 35.3427 151.078 35.3427 150.943 35.3619 150.828 35.4197 150.693 35.4775 150.596 35.5353 150.5 35.6316 150.404 35.7279 150.346 35.8242 150.288 35.959 150.23 36.0938 150.211 36.2094 150.211 36.3442 150.211 36.479 150.23 36.6139 150.288 36.7294 150.346 36.845 150.404 36.9605 150.5 37.0568 150.596 37.1531 150.693 37.2109 150.828 37.2687 150.943 37.3265 151.078 37.3457 151.213 37.3457 151.348 37.3457 151.482 37.3265 151.598 37.2687 151.714 37.2109 151.829 37.1531 151.925 37.0568 152.022 36.9605 152.079 36.8642 152.137 36.7294 152.195 36.6139 152.214 36.479 152.214 36.3442 152.214 36.2094 152.195 36.0746 152.137 35.959 152.079 35.8434 152.022 35.7279 151.925 35.6316Z" fill="#FFFFFF" transform="matrix(1 0 0 1.00278 57 156.007)"/><path d="M159.726 35.9398C159.668 36.0553 159.649 36.1901 159.649 36.325 159.649 36.4598 159.668 36.5946 159.726 36.7102 159.784 36.8257 159.841 36.9413 159.938 37.0376 160.034 37.1339 160.13 37.1917 160.265 37.2495 160.381 37.3072 160.515 37.3265 160.65 37.3265 160.785 37.3265 160.92 37.3072 161.035 37.2495 161.151 37.1917 161.267 37.1339 161.363 37.0376 161.459 36.9413 161.517 36.845 161.575 36.7102 161.633 36.5946 161.652 36.4598 161.652 36.325 161.652 36.1901 161.633 36.0553 161.575 35.9398 161.517 35.8242 161.459 35.7086 161.363 35.6123 161.267 35.516 161.17 35.4582 161.035 35.4005 160.901 35.3427 160.785 35.3234 160.65 35.3234 160.515 35.3234 160.381 35.3427 160.265 35.4005 160.13 35.4582 160.034 35.516 159.938 35.6123 159.841 35.7086 159.784 35.8049 159.726 35.9398Z" fill="#FFFFFF" transform="matrix(1 0 0 1.00278 57 156.007)"/><path d="M196.455 22.2071C196.417 22.1494 196.359 22.0531 196.301 22.0338 196.263 21.9953 189.791 18.4129 181.952 14.0793L167.7 6.18256 128.023 6.18256C128.023 6.18256 114.137 14.3682 114.137 14.3682 106.51 18.8558 100.211 22.5924 100.154 22.6501 100.057 22.7464 100.057 23.382 100.057 34.1678 100.057 44.9536 100.057 45.5892 100.154 45.6855 100.288 45.8396 128.774 61.6137 128.967 61.633 129.083 61.633 129.179 61.633 129.256 61.556 129.314 61.4982 132.029 57.7039 135.265 53.1199 139.522 47.0915 141.159 44.7417 141.159 44.6454 141.159 44.5491 141.101 44.4335 141.043 44.3758 140.966 44.2987 138.482 42.8927 135.496 41.2363 132.511 39.5799 130.026 38.2125 130.007 38.1739 129.969 38.1354 129.949 37.2495 129.949 33.9752L129.949 29.815C129.949 29.815 135.246 26.7141 135.246 26.7141L140.523 23.6131 155.758 23.6131 166.679 29.6609 166.679 33.8404C166.679 33.8404 166.66 38.0199 166.66 38.0199L161.286 41.1786C155.604 44.5299 155.681 44.4721 155.816 44.7995 155.874 44.9536 168.066 61.5174 168.2 61.5945 168.239 61.633 168.354 61.6715 168.431 61.6715 168.605 61.6715 196.301 45.4158 196.436 45.2232 196.532 45.1077 196.532 44.4913 196.532 33.7441 196.532 25.7896 196.532 22.342 196.474 22.2457L196.474 22.2457ZM100.943 34.1678C100.943 28.3127 100.943 23.4976 100.963 23.4783 100.963 23.4783 105.104 24.4028 110.111 25.5584 115.138 26.7141 121.456 28.1778 124.152 28.7942L129.044 29.9305 129.044 38.0776 128.717 38.1547C127.311 38.5014 101.078 44.8188 101.02 44.8188 100.963 44.8188 100.943 43.5283 100.943 34.1678L100.943 34.1678ZM134.764 41.8527C138 43.6439 140.003 44.7802 140.003 44.838 140.003 44.8958 129.063 60.4196 128.909 60.5737 128.871 60.6122 101.868 45.6855 101.868 45.6084 101.868 45.5314 108.05 44.0676 115.62 42.2379 123.17 40.4081 129.41 38.9251 129.449 38.9444 129.487 38.9444 131.895 40.2733 134.764 41.8719L134.764 41.8719ZM134.514 26.0977 129.429 29.1023 115.812 25.9822C108.339 24.2487 102.099 22.8235 101.964 22.785L101.714 22.7272 102.099 22.496C102.311 22.3805 108.224 18.8944 115.254 14.7534 122.284 10.6124 128.043 7.24188 128.043 7.24188 128.043 7.24188 130.681 10.805 133.878 15.1386 137.076 19.4914 139.676 23.0546 139.657 23.0739 139.637 23.0931 137.307 24.4606 134.514 26.117L134.514 26.117ZM155.681 22.6887 148.15 22.6887C148.15 22.6887 140.62 22.7272 140.62 22.7272L140.215 22.2071C139.637 21.456 129.121 7.20336 129.083 7.10706 129.044 7.06854 132.819 7.04928 147.881 7.03001 165.812 7.03001 166.717 7.03001 166.66 7.12632 166.64 7.1841 164.136 10.7087 161.132 14.9653L155.662 22.7079 155.662 22.7079ZM161.883 25.9629C158.975 24.345 156.586 22.9968 156.606 22.9776 156.606 22.9583 159.129 19.3951 162.172 15.0616 165.234 10.7473 167.738 7.20336 167.757 7.22262 167.911 7.29966 194.78 22.2264 194.78 22.2457 194.78 22.2649 188.578 23.7672 180.97 25.597L167.16 28.9097 161.864 25.9822 161.864 25.9822ZM168.508 60.5737C168.508 60.5544 165.87 56.9913 162.692 52.677 159.514 48.3434 156.914 44.7995 156.933 44.7802 156.952 44.761 159.264 43.3935 162.056 41.7564 164.849 40.1192 167.16 38.771 167.18 38.771 167.334 38.771 194.837 45.1462 194.799 45.1847 194.664 45.3003 168.547 60.6315 168.508 60.6122L168.508 60.6122ZM195.627 44.3372C195.608 44.3372 189.29 42.8927 181.586 41.1208L167.584 37.885 167.584 33.8019C167.565 31.5484 167.565 29.7187 167.584 29.7187 167.584 29.7187 173.882 28.1971 181.548 26.3481 189.213 24.4991 195.55 22.9776 195.589 22.9776 195.666 22.9776 195.685 23.5168 195.685 33.6285 195.685 43.7402 195.685 44.318 195.646 44.318L195.646 44.318Z" fill="#FFFFFF" transform="matrix(1 0 0 1.00278 57 156.007)"/><path d="M134.957 29.6031 136.652 29.6031 136.652 37.2687 134.957 37.2687Z" fill="#FFFFFF" transform="matrix(1 0 0 1.00278 57 156.007)"/><path d="M156.683 34.63 156.663 34.63 154.757 29.6031 152.831 29.6031 155.912 37.2687 157.26 37.2687 160.419 29.6031 158.609 29.6031 156.683 34.63Z" fill="#FFFFFF" transform="matrix(1 0 0 1.00278 57 156.007)"/><path d="M212.865 22.8042C212.615 22.8042 212.403 22.7272 212.229 22.5924 212.075 22.4383 211.979 22.2071 211.941 21.899L209.225 21.899C209.283 22.8427 209.649 23.5746 210.323 24.0754 211.016 24.5762 211.883 24.8458 212.942 24.8458 214.001 24.8458 214.252 24.711 214.772 24.4606 215.292 24.2102 215.677 23.8635 215.966 23.4398 216.255 23.0161 216.37 22.5153 216.37 21.976 216.37 21.4367 216.236 20.9937 215.966 20.6471 215.696 20.3004 215.369 20.0307 214.984 19.8189 214.598 19.6263 214.136 19.4337 213.539 19.2218 213.154 19.087 212.846 18.9714 212.653 18.8751 212.461 18.7788 212.287 18.6825 212.152 18.5477 212.018 18.4129 211.941 18.278 211.941 18.1047 211.941 17.9314 211.998 17.7388 212.114 17.6232 212.229 17.5076 212.383 17.4498 212.576 17.4498 212.769 17.4498 213.038 17.5269 213.192 17.6617 213.347 17.7965 213.443 18.0084 213.443 18.278L216.216 18.278C216.178 17.3728 215.831 16.6794 215.196 16.1787 214.56 15.6779 213.712 15.4275 212.634 15.4275 211.555 15.4275 211.382 15.5431 210.862 15.7549 210.342 15.9668 209.937 16.2942 209.649 16.718 209.36 17.1417 209.206 17.6424 209.206 18.2395 209.206 18.8366 209.34 19.2988 209.61 19.6455 209.88 20.0115 210.207 20.2811 210.573 20.4737 210.939 20.6663 211.42 20.8589 212.018 21.0515 212.576 21.2249 212.981 21.3982 213.231 21.5523 213.481 21.7064 213.616 21.899 213.616 22.1686 213.616 22.4383 213.539 22.5346 213.385 22.6501 213.231 22.7657 213.038 22.8235 212.807 22.8235L212.807 22.8235Z" fill="#FFFFFF" transform="matrix(1 0 0 1.00278 57 156.007)"/><path d="M248.439 24.7302 251 24.7302 251 17.5847 253.447 17.5847 253.447 15.5431 246.031 15.5431 246.031 17.5847 248.439 17.5847 248.439 24.7302Z" fill="#FFFFFF" transform="matrix(1 0 0 1.00278 57 156.007)"/><path d="M225.403 15.5431 227.946 15.5431 227.946 24.711 225.403 24.711Z" fill="#FFFFFF" transform="matrix(1 0 0 1.00278 57 156.007)"/><path d="M228.909 17.5847 231.336 17.5847 231.336 24.7302 233.878 24.7302 233.878 17.5847 236.324 17.5847 236.324 15.5431 228.909 15.5431 228.909 17.5847Z" fill="#FFFFFF" transform="matrix(1 0 0 1.00278 57 156.007)"/><path d="M239.117 24.3643C239.695 24.6725 240.369 24.8073 241.12 24.8073 241.871 24.8073 242.545 24.6532 243.161 24.3643 243.778 24.0561 244.259 23.6131 244.606 23.0353 244.953 22.4383 245.145 21.7256 245.145 20.8782L245.145 15.5623 242.603 15.5623 242.603 20.8782C242.603 21.3597 242.487 21.7449 242.237 22.0145 241.987 22.2842 241.64 22.419 241.178 22.419 240.715 22.419 240.369 22.2842 240.138 22.0145 239.906 21.7449 239.791 21.3597 239.791 20.8782L239.791 15.5623 237.249 15.5623 237.249 20.8782C237.249 21.7256 237.422 22.4383 237.749 23.0353 238.077 23.6324 238.539 24.0754 239.136 24.3643L239.136 24.3643Z" fill="#FFFFFF" transform="matrix(1 0 0 1.00278 57 156.007)"/><path d="M261.151 16.0053C260.438 15.6009 259.648 15.4083 258.782 15.4083 257.915 15.4083 257.125 15.6009 256.413 16.0053 255.7 16.4098 255.122 16.9683 254.698 17.681 254.275 18.3936 254.063 19.2025 254.063 20.1078 254.063 21.013 254.275 21.8219 254.698 22.5346 255.122 23.2472 255.681 23.8057 256.413 24.2102 257.125 24.6147 257.915 24.8073 258.782 24.8073 259.648 24.8073 260.438 24.5954 261.151 24.2102 261.863 23.825 262.441 23.2472 262.846 22.5346 263.269 21.8219 263.462 21.013 263.462 20.1078 263.462 19.2025 263.25 18.3936 262.846 17.681 262.422 16.9683 261.863 16.4098 261.151 16.0053L261.151 16.0053ZM260.322 21.8027C259.937 22.2264 259.436 22.4383 258.782 22.4383 258.127 22.4383 257.607 22.2264 257.241 21.8027 256.875 21.379 256.682 20.8204 256.682 20.0885 256.682 19.3566 256.875 18.7788 257.241 18.3743 257.607 17.9506 258.127 17.7388 258.782 17.7388 259.436 17.7388 259.937 17.9506 260.322 18.3743 260.708 18.7981 260.881 19.3759 260.881 20.0885 260.881 20.8011 260.688 21.3597 260.322 21.8027Z" fill="#FFFFFF" transform="matrix(1 0 0 1.00278 57 156.007)"/><path d="M222.014 24.7302 222.014 17.5847 224.46 17.5847 224.46 15.5431 217.044 15.5431 217.044 17.5847 219.471 17.5847 219.471 24.7302 222.014 24.7302Z" fill="#FFFFFF" transform="matrix(1 0 0 1.00278 57 156.007)"/><path d="M205.488 15.5431 208.031 15.5431 208.031 24.711 205.488 24.711Z" fill="#FFFFFF" transform="matrix(1 0 0 1.00278 57 156.007)"/><path d="M272.168 29.372 274.71 29.372 274.71 38.5399 272.168 38.5399Z" fill="#FFFFFF" transform="matrix(1 0 0 1.00278 57 156.007)"/><path d="M332.163 31.3943 334.59 31.3943 334.59 38.5399 337.133 38.5399 337.133 31.3943 339.579 31.3943 339.579 29.372 332.163 29.372 332.163 31.3943Z" fill="#FFFFFF" transform="matrix(1 0 0 1.00278 57 156.007)"/><path d="M348.997 31.4906C348.573 30.778 348.015 30.2194 347.302 29.815 346.589 29.4105 345.8 29.2179 344.933 29.2179 344.066 29.2179 343.277 29.4105 342.564 29.815 341.851 30.2194 341.274 30.778 340.85 31.4906 340.426 32.2032 340.214 33.0122 340.214 33.9174 340.214 34.8227 340.426 35.6316 340.85 36.3442 341.274 37.0568 341.832 37.6154 342.564 38.0199 343.296 38.4243 344.066 38.6169 344.933 38.6169 345.8 38.6169 346.589 38.4243 347.302 38.0199 348.015 37.6154 348.592 37.0568 348.997 36.3442 349.421 35.6316 349.613 34.8227 349.613 33.9174 349.613 33.0122 349.401 32.2032 348.997 31.4906L348.997 31.4906ZM346.474 35.6316C346.089 36.0553 345.588 36.2672 344.933 36.2672 344.278 36.2672 343.758 36.0553 343.392 35.6316 343.026 35.2079 342.834 34.6493 342.834 33.9174 342.834 33.1855 343.026 32.6077 343.392 32.184 343.758 31.7603 344.278 31.5484 344.933 31.5484 345.588 31.5484 346.089 31.7603 346.474 32.184 346.84 32.6077 347.032 33.1855 347.032 33.9174 347.032 34.6493 346.84 35.1886 346.474 35.6316Z" fill="#FFFFFF" transform="matrix(1 0 0 1.00278 57 156.007)"/><path d="M229.814 31.6062C230.199 31.6062 230.527 31.7025 230.816 31.8758 231.105 32.0492 231.336 32.3188 231.49 32.6655L234.225 32.6655C233.994 31.6062 233.493 30.778 232.722 30.1809 231.933 29.5646 230.97 29.2564 229.833 29.2564 228.697 29.2564 228.138 29.449 227.445 29.8535 226.752 30.258 226.212 30.7972 225.846 31.5099 225.461 32.2225 225.288 33.0314 225.288 33.9174 225.288 34.8034 225.48 35.6316 225.846 36.3442 226.232 37.0568 226.752 37.5961 227.445 38.0006 228.138 38.3858 228.947 38.5977 229.833 38.5977 230.719 38.5977 231.933 38.2895 232.722 37.6732 233.512 37.0568 234.013 36.2287 234.225 35.1886L231.49 35.1886C231.316 35.5353 231.105 35.8049 230.816 35.9783 230.527 36.1709 230.18 36.2479 229.814 36.2479 229.217 36.2479 228.755 36.0361 228.408 35.6123 228.061 35.1886 227.888 34.63 227.888 33.9174 227.888 33.2048 228.061 32.6462 228.408 32.2225 228.755 31.7988 229.236 31.5869 229.814 31.5869L229.814 31.5869Z" fill="#FFFFFF" transform="matrix(1 0 0 1.00278 57 156.007)"/><path d="M325.557 38.5399 331.412 38.5399 331.412 36.4983 328.099 36.4983 328.099 34.8419 331.027 34.8419 331.027 32.8966 328.099 32.8966 328.099 31.4136 331.412 31.4136 331.412 29.372 325.557 29.372 325.557 38.5399Z" fill="#FFFFFF" transform="matrix(1 0 0 1.00278 57 156.007)"/><path d="M280.392 31.6062C280.777 31.6062 281.104 31.7025 281.393 31.8758 281.682 32.0492 281.913 32.3188 282.087 32.6655L284.822 32.6655C284.59 31.6062 284.09 30.778 283.319 30.1809 282.53 29.5646 281.567 29.2564 280.43 29.2564 279.294 29.2564 278.735 29.449 278.042 29.8535 277.349 30.258 276.809 30.7972 276.443 31.5099 276.058 32.2225 275.885 33.0314 275.885 33.9174 275.885 34.8034 276.077 35.6316 276.443 36.3442 276.829 37.0568 277.349 37.5961 278.042 38.0006 278.735 38.3858 279.544 38.5977 280.43 38.5977 281.316 38.5977 282.53 38.2895 283.319 37.6732 284.109 37.0568 284.61 36.2287 284.822 35.1886L282.087 35.1886C281.913 35.5353 281.701 35.8049 281.393 35.9783 281.104 36.1709 280.777 36.2479 280.392 36.2479 279.795 36.2479 279.332 36.0361 278.986 35.6123 278.639 35.1886 278.466 34.63 278.466 33.9174 278.466 33.2048 278.639 32.6462 278.986 32.2225 279.332 31.7988 279.814 31.5869 280.392 31.5869L280.392 31.5869Z" fill="#FFFFFF" transform="matrix(1 0 0 1.00278 57 156.007)"/><path d="M266.274 35.1501 268.835 35.1501C268.45 35.959 267.815 36.3635 266.929 36.3635 266.043 36.3635 265.6 36.1516 265.215 35.7471 264.81 35.3427 264.617 34.7456 264.617 33.9367 264.617 33.1277 264.791 32.6848 265.176 32.261 265.542 31.8373 266.043 31.6447 266.698 31.6447 267.352 31.6447 267.352 31.7025 267.603 31.8373 267.853 31.9721 268.065 32.1455 268.2 32.3959L270.935 32.3959C270.762 31.4328 270.28 30.6817 269.529 30.1231 268.778 29.5646 267.815 29.2949 266.659 29.2949 265.503 29.2949 264.926 29.4875 264.232 29.892 263.52 30.2772 262.98 30.8358 262.595 31.5484 262.21 32.261 262.017 33.07 262.017 33.9559 262.017 34.8419 262.21 35.6701 262.595 36.3827 262.98 37.0954 263.52 37.6347 264.232 38.0391 264.945 38.4243 265.754 38.6362 266.678 38.6362 267.603 38.6362 268.104 38.5014 268.701 38.2317 269.298 37.9621 269.779 37.6154 270.164 37.1917 270.55 36.7679 270.839 36.3057 271.05 35.8242L271.05 33.3589 266.293 33.3589 266.293 35.1886 266.293 35.1886Z" fill="#FFFFFF" transform="matrix(1 0 0 1.00278 57 156.007)"/><path d="M248.246 29.372 245.704 29.372 245.704 38.5399 251.097 38.5399 251.097 36.5946 248.246 36.5946 248.246 29.372Z" fill="#FFFFFF" transform="matrix(1 0 0 1.00278 57 156.007)"/><path d="M242.237 29.815C241.524 29.4105 240.735 29.2179 239.868 29.2179 239.001 29.2179 238.212 29.4105 237.499 29.815 236.786 30.2194 236.209 30.778 235.785 31.4906 235.361 32.2032 235.149 33.0122 235.149 33.9174 235.149 34.8227 235.361 35.6316 235.785 36.3442 236.209 37.0568 236.767 37.6154 237.499 38.0199 238.212 38.4243 239.001 38.6169 239.868 38.6169 240.735 38.6169 241.524 38.4243 242.237 38.0199 242.95 37.6154 243.527 37.0568 243.932 36.3442 244.356 35.6316 244.548 34.8227 244.548 33.9174 244.548 33.0122 244.336 32.2032 243.932 31.4906 243.508 30.778 242.95 30.2194 242.237 29.815L242.237 29.815ZM241.409 35.6316C241.024 36.0553 240.523 36.2672 239.868 36.2672 239.213 36.2672 238.693 36.0553 238.327 35.6316 237.961 35.2079 237.769 34.6493 237.769 33.9174 237.769 33.1855 237.961 32.6077 238.327 32.184 238.693 31.7603 239.213 31.5484 239.868 31.5484 240.523 31.5484 241.024 31.7603 241.409 32.184 241.794 32.6077 241.967 33.1855 241.967 33.9174 241.967 34.6493 241.775 35.1886 241.409 35.6316Z" fill="#FFFFFF" transform="matrix(1 0 0 1.00278 57 156.007)"/><path d="M292.815 29.815C292.102 29.4105 291.312 29.2179 290.446 29.2179 289.579 29.2179 288.789 29.4105 288.077 29.815 287.364 30.2194 286.786 30.778 286.362 31.4906 285.939 32.2032 285.727 33.0122 285.727 33.9174 285.727 34.8227 285.939 35.6316 286.362 36.3442 286.786 37.0568 287.345 37.6154 288.077 38.0199 288.789 38.4243 289.579 38.6169 290.446 38.6169 291.312 38.6169 292.102 38.4243 292.815 38.0199 293.527 37.6154 294.105 37.0568 294.509 36.3442 294.933 35.6316 295.126 34.8227 295.126 33.9174 295.126 33.0122 294.914 32.2032 294.509 31.4906 294.086 30.778 293.527 30.2194 292.815 29.815L292.815 29.815ZM291.967 35.6316C291.582 36.0553 291.081 36.2672 290.426 36.2672 289.771 36.2672 289.251 36.0553 288.885 35.6316 288.52 35.2079 288.327 34.6493 288.327 33.9174 288.327 33.1855 288.52 32.6077 288.885 32.184 289.251 31.7603 289.771 31.5484 290.426 31.5484 291.081 31.5484 291.582 31.7603 291.967 32.184 292.352 32.6077 292.526 33.1855 292.526 33.9174 292.526 34.6493 292.333 35.1886 291.967 35.6316Z" fill="#FFFFFF" transform="matrix(1 0 0 1.00278 57 156.007)"/><path d="M321.551 34.553 318.142 29.372 315.6 29.372 315.6 38.5399 318.142 38.5399 318.142 33.4166 321.551 38.5399 324.093 38.5399 324.093 29.372 321.551 29.372 321.551 34.553Z" fill="#FFFFFF" transform="matrix(1 0 0 1.00278 57 156.007)"/><path d="M212.191 29.815C211.478 29.4105 210.689 29.2179 209.822 29.2179 208.955 29.2179 208.165 29.4105 207.453 29.815 206.74 30.2194 206.162 30.778 205.739 31.4906 205.315 32.2032 205.103 33.0122 205.103 33.9174 205.103 34.8227 205.315 35.6316 205.739 36.3442 206.162 37.0568 206.721 37.6154 207.453 38.0199 208.165 38.4243 208.955 38.6169 209.822 38.6169 210.689 38.6169 211.478 38.4243 212.191 38.0199 212.904 37.6154 213.481 37.0568 213.886 36.3442 214.31 35.6316 214.502 34.8227 214.502 33.9174 214.502 33.0122 214.29 32.2032 213.886 31.4906 213.462 30.778 212.904 30.2194 212.191 29.815L212.191 29.815ZM211.363 35.6316C210.978 36.0553 210.477 36.2672 209.822 36.2672 209.167 36.2672 208.647 36.0553 208.281 35.6316 207.915 35.2079 207.723 34.6493 207.723 33.9174 207.723 33.1855 207.915 32.6077 208.281 32.184 208.647 31.7603 209.167 31.5484 209.822 31.5484 210.477 31.5484 210.978 31.7603 211.363 32.184 211.748 32.6077 211.921 33.1855 211.921 33.9174 211.921 34.6493 211.729 35.1886 211.363 35.6316Z" fill="#FFFFFF" transform="matrix(1 0 0 1.00278 57 156.007)"/><path d="M308.473 38.5399 314.348 38.5399 314.348 36.4983 311.016 36.4983 311.016 34.8419 313.943 34.8419 313.943 32.8966 311.016 32.8966 311.016 31.4136 314.348 31.4136 314.348 29.372 308.473 29.372 308.473 38.5399Z" fill="#FFFFFF" transform="matrix(1 0 0 1.00278 57 156.007)"/><path d="M302.888 35.9783 300.808 29.372 298.073 29.372 301.251 38.5399 304.525 38.5399 307.684 29.372 304.968 29.372 302.888 35.9783Z" fill="#FFFFFF" transform="matrix(1 0 0 1.00278 57 156.007)"/><path d="M258.859 29.815C258.146 29.4105 257.356 29.2179 256.49 29.2179 255.623 29.2179 254.833 29.4105 254.121 29.815 253.408 30.2194 252.83 30.778 252.406 31.4906 251.983 32.2032 251.771 33.0122 251.771 33.9174 251.771 34.8227 251.983 35.6316 252.406 36.3442 252.83 37.0568 253.389 37.6154 254.121 38.0199 254.852 38.4243 255.623 38.6169 256.49 38.6169 257.356 38.6169 258.146 38.4243 258.859 38.0199 259.571 37.6154 260.149 37.0568 260.554 36.3442 260.977 35.6316 261.17 34.8227 261.17 33.9174 261.17 33.0122 260.958 32.2032 260.554 31.4906 260.13 30.778 259.571 30.2194 258.859 29.815L258.859 29.815ZM258.03 35.6316C257.645 36.0553 257.144 36.2672 256.49 36.2672 255.835 36.2672 255.315 36.0553 254.949 35.6316 254.583 35.2079 254.39 34.6493 254.39 33.9174 254.39 33.1855 254.583 32.6077 254.949 32.184 255.315 31.7603 255.835 31.5484 256.49 31.5484 257.144 31.5484 257.665 31.7603 258.03 32.184 258.416 32.6077 258.589 33.1855 258.589 33.9174 258.589 34.6493 258.396 35.1886 258.03 35.6316Z" fill="#FFFFFF" transform="matrix(1 0 0 1.00278 57 156.007)"/><path d="M221.609 34.553 218.2 29.372 215.658 29.372 215.658 38.5399 218.2 38.5399 218.2 33.4166 221.609 38.5399 224.152 38.5399 224.152 29.372 221.609 29.372 221.609 34.553Z" fill="#FFFFFF" transform="matrix(1 0 0 1.00278 57 156.007)"/><path d="M88.1737 0 89.0404 0 89.0404 67.7963 88.1737 67.7963Z" fill="#FFFFFF" transform="matrix(1 0 0 1.00278 57 156.007)"/><path d="M220.531 45.1077C220.935 44.8573 221.417 44.7417 221.937 44.7417 222.457 44.7417 222.861 44.8573 223.246 45.0691 223.632 45.281 223.92 45.6084 224.132 46.0514L226.232 46.0514C225.924 45.1269 225.403 44.4143 224.633 43.8943 223.863 43.3742 222.977 43.1238 221.975 43.1238 220.974 43.1238 220.319 43.3164 219.625 43.7209 218.932 44.1061 218.373 44.6647 217.969 45.3773 217.565 46.0899 217.372 46.8796 217.372 47.7848 217.372 48.6901 217.584 49.4797 217.969 50.1731 218.354 50.8665 218.913 51.425 219.625 51.8102 220.319 52.1955 221.108 52.4073 221.975 52.4073 222.842 52.4073 223.882 52.1569 224.652 51.6369 225.403 51.1169 225.943 50.4042 226.251 49.4797L224.152 49.4797C223.94 49.9035 223.651 50.2502 223.266 50.462 222.88 50.6739 222.457 50.7895 221.956 50.7895 221.455 50.7895 220.954 50.6739 220.55 50.4235 220.145 50.1731 219.818 49.8264 219.587 49.3642 219.356 48.9019 219.24 48.3819 219.24 47.7848 219.24 47.1878 219.356 46.6485 219.587 46.2055 219.818 45.7625 220.145 45.4158 220.55 45.1654L220.55 45.1654Z" fill="#FFFFFF" transform="matrix(1 0 0 1.00278 57 156.007)"/><path d="M215.504 47.6115C215.85 47.13 216.024 46.5907 216.024 45.9936 216.024 45.3966 215.908 45.0114 215.658 44.5876 215.407 44.1639 215.041 43.8365 214.541 43.5861 214.04 43.3357 213.443 43.2201 212.749 43.2201L209.34 43.2201 209.34 52.2918 211.17 52.2918 211.17 48.7479 212.018 48.7479 214.021 52.2918 216.12 52.2918 213.944 48.613C214.637 48.4204 215.138 48.093 215.484 47.6115L215.484 47.6115ZM212.692 47.3996 211.17 47.3996 211.17 44.7225 212.692 44.7225C213.192 44.7225 213.558 44.838 213.79 45.0691 214.021 45.3003 214.155 45.6277 214.155 46.0322 214.155 46.4366 214.04 46.7833 213.79 47.0337 213.539 47.2648 213.173 47.3996 212.692 47.3996L212.692 47.3996Z" fill="#FFFFFF" transform="matrix(1 0 0 1.00278 57 156.007)"/><path d="M205.488 43.2201 207.318 43.2201 207.318 52.2918 205.488 52.2918Z" fill="#FFFFFF" transform="matrix(1 0 0 1.00278 57 156.007)"/><path d="M230.642 45.1077C231.047 44.8573 231.528 44.7417 232.048 44.7417 232.568 44.7417 232.973 44.8573 233.358 45.0691 233.743 45.281 234.032 45.6084 234.244 46.0514L236.343 46.0514C236.035 45.1269 235.515 44.4143 234.745 43.8943 233.974 43.3742 233.088 43.1238 232.087 43.1238 231.085 43.1238 230.43 43.3164 229.737 43.7209 229.044 44.1061 228.485 44.6647 228.081 45.3773 227.676 46.0899 227.484 46.8796 227.484 47.7848 227.484 48.6901 227.695 49.4797 228.081 50.1731 228.466 50.8665 229.044 51.425 229.737 51.8102 230.43 52.1955 231.22 52.4073 232.087 52.4073 232.954 52.4073 233.994 52.1569 234.764 51.6369 235.515 51.1169 236.054 50.4042 236.363 49.4797L234.263 49.4797C234.051 49.9035 233.762 50.2502 233.377 50.462 232.992 50.6739 232.568 50.7895 232.068 50.7895 231.567 50.7895 231.066 50.6739 230.662 50.4235 230.257 50.1731 229.93 49.8264 229.699 49.3642 229.467 48.9019 229.352 48.3819 229.352 47.7848 229.352 47.1878 229.467 46.6485 229.699 46.2055 229.93 45.7625 230.257 45.4158 230.662 45.1654L230.662 45.1654Z" fill="#FFFFFF" transform="matrix(1 0 0 1.00278 57 156.007)"/><path d="M242.796 47.5152C242.43 47.3419 241.948 47.1685 241.351 46.9952 240.927 46.8603 240.581 46.7448 240.349 46.6485 240.118 46.5522 239.906 46.4174 239.752 46.2633 239.598 46.1092 239.521 45.8973 239.521 45.6662 239.521 45.3195 239.637 45.0499 239.849 44.8765 240.061 44.7032 240.349 44.6069 240.696 44.6069 241.043 44.6069 241.428 44.7032 241.678 44.9151 241.929 45.1269 242.064 45.3773 242.083 45.6855L244.086 45.6855C244.028 44.8765 243.701 44.2409 243.123 43.7787 242.545 43.3164 241.775 43.1046 240.831 43.1046 239.887 43.1046 239.656 43.2009 239.175 43.432 238.693 43.6439 238.308 43.952 238.038 44.3565 237.769 44.761 237.634 45.2232 237.634 45.7625 237.634 46.3018 237.769 46.8026 238.038 47.13 238.308 47.4767 238.616 47.7271 238.982 47.9004 239.348 48.0737 239.829 48.2471 240.427 48.4204 240.85 48.536 241.197 48.6516 241.447 48.7479 241.698 48.8442 241.89 48.979 242.064 49.1523 242.218 49.3257 242.314 49.5375 242.314 49.8264 242.314 50.1153 242.198 50.4235 241.948 50.6161 241.698 50.8087 241.37 50.9243 240.947 50.9243 240.523 50.9243 240.195 50.8087 239.964 50.5969 239.733 50.385 239.598 50.0768 239.56 49.7109L237.615 49.7109C237.615 50.2694 237.769 50.7509 238.077 51.1554 238.366 51.5599 238.77 51.868 239.271 52.0992 239.772 52.311 240.349 52.4266 240.985 52.4266 241.621 52.4266 242.237 52.311 242.718 52.0606 243.2 51.8102 243.566 51.4828 243.816 51.0591 244.067 50.6354 244.202 50.1924 244.202 49.7109 244.202 49.2294 244.067 48.6901 243.797 48.3434 243.527 47.9967 243.2 47.7463 242.834 47.5537L242.834 47.5537Z" fill="#FFFFFF" transform="matrix(1 0 0 1.00278 57 156.007)"/><path d="M15.3312 59.6107C15.7357 59.2447 16.0824 58.8595 16.352 58.4551 16.6217 58.0506 16.7565 57.6654 16.7565 57.2802 16.7565 56.895 16.6602 56.6253 16.4868 56.4135 16.3135 56.2016 16.0246 56.1053 15.6394 56.1053 15.2542 56.1053 14.9653 56.2209 14.7534 56.4712 14.5415 56.7216 14.426 57.0298 14.4067 57.415L13.6748 57.415C13.6941 56.7987 13.8867 56.2979 14.2526 55.9705 14.6186 55.6238 15.0616 55.4697 15.6394 55.4697 16.2172 55.4697 16.6794 55.6238 17.0069 55.9512 17.3535 56.2594 17.5076 56.7024 17.5076 57.2609 17.5076 57.8195 17.3728 58.1854 17.1032 58.6091 16.8335 59.0521 16.5061 59.4373 16.1594 59.7648 15.8127 60.0922 15.3505 60.4774 14.8112 60.9204L17.681 60.9204 17.681 61.556 13.6556 61.556 13.6556 61.0167C14.3682 60.4389 14.9267 59.9766 15.312 59.6107L15.312 59.6107Z" fill="#FFFFFF" transform="matrix(1 0 0 1.00278 57 156.007)"/><path d="M19.2025 56.2786C19.5107 55.7394 20.0692 55.4697 20.8397 55.4697 21.6101 55.4697 22.1686 55.7394 22.4768 56.2786 22.785 56.8179 22.939 57.5691 22.939 58.5321 22.939 59.4951 22.785 60.2655 22.4768 60.8048 22.1686 61.3441 21.6293 61.6137 20.8397 61.6137 20.05 61.6137 19.5107 61.3441 19.2025 60.8048 18.8944 60.2655 18.7403 59.4951 18.7403 58.5321 18.7403 57.5691 18.8944 56.8179 19.2025 56.2786ZM22.1108 57.2994C22.0531 56.9528 21.9182 56.6831 21.7256 56.4905 21.533 56.2786 21.2441 56.1823 20.8782 56.1823 20.5122 56.1823 20.2041 56.2786 20.0115 56.4905 19.8189 56.7024 19.684 56.972 19.6263 57.2994 19.5685 57.6269 19.53 58.0506 19.53 58.5321 19.53 59.0136 19.5685 59.4566 19.6263 59.8033 19.684 60.15 19.8189 60.4196 20.0115 60.6315 20.2041 60.8433 20.493 60.9396 20.8782 60.9396 21.2634 60.9396 21.533 60.8433 21.7256 60.6315 21.9182 60.4196 22.0531 60.15 22.1108 59.8033 22.1686 59.4566 22.2071 59.0329 22.2071 58.5321 22.2071 58.0313 22.1686 57.6269 22.1108 57.2994Z" fill="#FFFFFF" transform="matrix(1 0 0 1.00278 57 156.007)"/><path d="M24.6339 56.2786C24.9421 55.7394 25.5007 55.4697 26.2711 55.4697 27.0415 55.4697 27.6 55.7394 27.9082 56.2786 28.2164 56.8179 28.3704 57.5691 28.3704 58.5321 28.3704 59.4951 28.2164 60.2655 27.9082 60.8048 27.6 61.3441 27.0607 61.6137 26.2711 61.6137 25.4814 61.6137 24.9421 61.3441 24.6339 60.8048 24.3258 60.2655 24.1717 59.4951 24.1717 58.5321 24.1717 57.5691 24.3258 56.8179 24.6339 56.2786ZM27.523 57.2994C27.4652 56.9528 27.3304 56.6831 27.1378 56.4905 26.9452 56.2786 26.6563 56.1823 26.2903 56.1823 25.9244 56.1823 25.6162 56.2786 25.4236 56.4905 25.231 56.7024 25.0962 56.972 25.0384 57.2994 24.9806 57.6269 24.9421 58.0506 24.9421 58.5321 24.9421 59.0136 24.9806 59.4566 25.0384 59.8033 25.0962 60.15 25.231 60.4196 25.4236 60.6315 25.6162 60.8433 25.9051 60.9396 26.2903 60.9396 26.6755 60.9396 26.9452 60.8433 27.1378 60.6315 27.3304 60.4196 27.4652 60.15 27.523 59.8033 27.5808 59.4566 27.6193 59.0329 27.6193 58.5321 27.6193 58.0313 27.5808 57.6269 27.523 57.2994Z" fill="#FFFFFF" transform="matrix(1 0 0 1.00278 57 156.007)"/><path d="M33.4552 56.2209 30.5083 56.2209 30.5083 58.1276C30.6432 57.9543 30.8165 57.8002 31.0861 57.6846 31.3365 57.5691 31.6062 57.5113 31.8951 57.5113 32.3573 57.5113 32.7425 57.6076 33.0314 57.8002 33.3203 57.9928 33.5322 58.2432 33.6478 58.5514 33.7633 58.8595 33.8404 59.1677 33.8404 59.5144 33.8404 59.8611 33.7633 60.2848 33.6092 60.593 33.4552 60.9011 33.224 61.1708 32.9159 61.3441 32.6077 61.5367 32.2225 61.6137 31.7603 61.6137 31.298 61.6137 30.7009 61.4597 30.335 61.1515 29.9691 60.8433 29.7572 60.4581 29.6801 59.9381L30.4313 59.9381C30.5083 60.2463 30.6624 60.4967 30.8935 60.6893 31.1247 60.8819 31.4328 60.9589 31.7795 60.9589 32.1262 60.9589 32.5499 60.8241 32.7811 60.5544 33.0122 60.2848 33.1085 59.9381 33.1085 59.4951 33.1085 59.0521 32.9929 58.7247 32.7811 58.4936 32.5692 58.2625 32.2225 58.1276 31.7988 58.1276 31.3751 58.1276 31.2402 58.2047 31.0284 58.3395 30.8165 58.4743 30.6432 58.6862 30.5469 58.9173L29.8342 58.9173 29.8342 55.5082 33.4744 55.5082 33.4744 56.1823 33.4744 56.1823Z" fill="#FFFFFF" transform="matrix(1 0 0 1.00278 57 156.007)"/><path d="M40.7356 58.2239 40.7356 58.8788 37.4035 58.8788 37.4035 58.2239 40.7356 58.2239Z" fill="#FFFFFF" transform="matrix(1 0 0 1.00278 57 156.007)"/><path d="M46.1862 59.6107C46.5907 59.2447 46.9374 58.8595 47.207 58.4551 47.4767 58.0506 47.6115 57.6654 47.6115 57.2802 47.6115 56.895 47.5152 56.6253 47.3419 56.4135 47.1685 56.2016 46.8796 56.1053 46.4944 56.1053 46.1092 56.1053 45.8203 56.2209 45.6084 56.4712 45.3966 56.7216 45.281 57.0298 45.2617 57.415L44.5299 57.415C44.5491 56.7987 44.7417 56.2979 45.1077 55.9705 45.4736 55.6238 45.9166 55.4697 46.4944 55.4697 47.0722 55.4697 47.5345 55.6238 47.8619 55.9512 48.2086 56.2594 48.3627 56.7024 48.3627 57.2609 48.3627 57.8195 48.2278 58.1854 47.9582 58.6091 47.6885 59.0521 47.3611 59.4373 47.0144 59.7648 46.6677 60.0922 46.2055 60.4774 45.6662 60.9204L48.5553 60.9204 48.5553 61.556 44.5299 61.556 44.5299 61.0167C45.2425 60.4389 45.801 59.9766 46.1862 59.6107L46.1862 59.6107Z" fill="#FFFFFF" transform="matrix(1 0 0 1.00278 57 156.007)"/><path d="M50.0576 56.2786C50.3657 55.7394 50.9243 55.4697 51.6947 55.4697 52.4651 55.4697 53.0236 55.7394 53.3318 56.2786 53.64 56.8179 53.7941 57.5691 53.7941 58.5321 53.7941 59.4951 53.64 60.2655 53.3318 60.8048 53.0236 61.3441 52.4651 61.6137 51.6947 61.6137 50.9243 61.6137 50.3657 61.3441 50.0576 60.8048 49.7494 60.2655 49.5953 59.4951 49.5953 58.5321 49.5953 57.5691 49.7494 56.8179 50.0576 56.2786ZM52.9466 57.2994C52.8888 56.9528 52.754 56.6831 52.5614 56.4905 52.3688 56.2786 52.0799 56.1823 51.6947 56.1823 51.3095 56.1823 51.0206 56.2786 50.828 56.4905 50.6354 56.7024 50.5005 56.972 50.4428 57.2994 50.385 57.6461 50.3465 58.0506 50.3465 58.5321 50.3465 59.0136 50.385 59.4566 50.4428 59.8033 50.5005 60.15 50.6354 60.4196 50.828 60.6315 51.0206 60.8433 51.3095 60.9396 51.6947 60.9396 52.0799 60.9396 52.3495 60.8433 52.5614 60.6315 52.7733 60.4196 52.8888 60.15 52.9466 59.8033 53.0044 59.4566 53.0429 59.0329 53.0429 58.5321 53.0429 58.0313 53.0044 57.6269 52.9466 57.2994Z" fill="#FFFFFF" transform="matrix(1 0 0 1.00278 57 156.007)"/><path d="M56.5868 59.6107C56.9913 59.2447 57.338 58.8595 57.6076 58.4551 57.8772 58.0506 58.0121 57.6654 58.0121 57.2802 58.0121 56.895 57.9158 56.6253 57.7424 56.4135 57.5691 56.2016 57.2802 56.1053 56.895 56.1053 56.5098 56.1053 56.2209 56.2209 56.009 56.4712 55.7971 56.7216 55.6816 57.0298 55.6623 57.415L54.9304 57.415C54.9497 56.7987 55.1423 56.2979 55.5082 55.9705 55.8742 55.6238 56.3172 55.4697 56.895 55.4697 57.4728 55.4697 57.935 55.6238 58.2625 55.9512 58.6091 56.2594 58.7632 56.7024 58.7632 57.2609 58.7632 57.8195 58.6284 58.1854 58.3588 58.6091 58.0891 59.0521 57.7617 59.4373 57.415 59.7648 57.0683 60.0922 56.6061 60.4774 56.0668 60.9204L58.9558 60.9204 58.9558 61.556 54.9304 61.556 54.9304 61.0167C55.6431 60.4389 56.2016 59.9766 56.5868 59.6107L56.5868 59.6107Z" fill="#FFFFFF" transform="matrix(1 0 0 1.00278 57 156.007)"/><path d="M63.8479 56.2209 60.9011 56.2209 60.9011 58.1276C61.0359 57.9543 61.2093 57.8002 61.4789 57.6846 61.7293 57.5691 61.999 57.5113 62.2879 57.5113 62.7501 57.5113 63.1353 57.6076 63.4242 57.8002 63.7131 57.9928 63.925 58.2432 64.0406 58.5514 64.1561 58.8595 64.2332 59.1677 64.2332 59.5144 64.2332 59.8611 64.1561 60.2848 64.002 60.593 63.8479 60.9011 63.6168 61.1708 63.3087 61.3441 63.0005 61.5367 62.6153 61.6137 62.153 61.6137 61.6908 61.6137 61.0937 61.4597 60.7278 61.1515 60.3618 60.8433 60.15 60.4581 60.0729 59.9381L60.8241 59.9381C60.9011 60.2463 61.0552 60.4967 61.2863 60.6893 61.5174 60.8819 61.8256 60.9589 62.1723 60.9589 62.519 60.9589 62.9427 60.8241 63.1738 60.5544 63.405 60.2848 63.5013 59.9381 63.5013 59.4951 63.5013 59.0521 63.3857 58.7247 63.1738 58.4936 62.962 58.2625 62.6153 58.1276 62.1916 58.1276 61.7678 58.1276 61.633 58.2047 61.4211 58.3395 61.2093 58.4743 61.0359 58.6862 60.9396 58.9173L60.227 58.9173 60.227 55.5082 63.8672 55.5082 63.8672 56.1823 63.8672 56.1823Z" fill="#FFFFFF" transform="matrix(1 0 0 1.00278 57 156.007)"/><path d="M9.59164 23.305 1.86825 23.305 1.86825 20.05C1.86825 19.9344 1.86825 19.8189 1.86825 19.684L1.86825 19.6455C1.96455 17.1802 2.94683 15.0616 4.79582 13.3089 6.76037 11.4599 9.07161 10.5354 11.6718 10.5161L11.7681 10.5161C14.3489 10.5932 16.5639 11.4984 18.3358 13.2126 18.9907 13.8482 19.53 14.5415 19.9729 15.2734 18.8751 14.3682 17.5847 13.9059 16.0438 13.8674 14.2912 13.8674 12.7888 14.4838 11.4599 15.7357 10.1887 16.9298 9.57238 18.3358 9.57238 20.0115L9.57238 23.2665 9.57238 23.2665Z" fill="#FFFFFF" transform="matrix(1 0 0 1.00278 57 156.007)"/><path d="M54.7186 6.1633C54.1022 6.1633 53.4666 6.18256 52.8696 6.24034L52.8696 6.24034C46.4174 6.79889 40.7934 10.1694 37.2109 15.1386 39.291 12.9622 41.9104 11.3058 44.838 10.3621L44.838 10.3621C46.5714 9.8035 48.4204 9.5146 50.3465 9.5146 58.5321 9.5146 65.4851 14.946 67.7578 22.419 68.7979 25.7896 68.8171 29.6224 67.7578 33.0314 65.4851 40.4852 58.5321 45.9359 50.3272 45.9359L1.61787 45.9359 1.61787 49.2871 54.7378 49.2871C66.6407 49.2871 76.3094 39.6377 76.3094 27.7156 76.3094 15.7935 66.66 6.14404 54.7378 6.14404L54.7378 6.14404Z" fill="#FFFFFF" transform="matrix(1 0 0 1.00278 57 156.007)"/><path d="M64.5991 17.7002C62.0567 15.1964 58.5706 13.6363 54.7186 13.6363 50.8665 13.6363 53.197 13.6941 52.4651 13.8096 52.311 13.8289 52.1569 13.8674 52.0029 13.8867 51.9451 13.8867 51.8873 13.9059 51.8295 13.9252 45.4543 15.2734 40.6393 20.936 40.6393 27.7156 40.6393 34.4952 41.3326 32.704 42.546 34.7841 42.7386 35.1116 42.9312 35.4197 43.1431 35.7279L34.6878 35.7279C33.6863 33.2433 33.147 30.5469 33.147 27.7156 33.147 24.8843 33.4744 23.3628 34.11 21.3404 34.11 21.3404 34.11 21.3404 34.11 21.3404 34.5337 20.2811 35.0538 19.2603 35.6508 18.3166 36.2672 17.3728 36.9605 16.4868 37.731 15.6586L37.731 15.6586C38.6169 14.7341 39.5799 13.9252 40.62 13.2318 42.3342 12.0762 44.2602 11.2288 46.2825 10.7473 47.5922 10.4391 48.9405 10.285 50.3272 10.285 54.1407 10.285 57.7424 11.4984 60.7856 13.7904 62.2493 14.8882 63.5205 16.2172 64.5606 17.7002Z" fill="#FFFFFF" transform="matrix(1 0 0 1.00278 57 156.007)"/><path d="M65.1962 36.8835C64.0598 38.7325 62.5768 40.3504 60.8433 41.6793 57.8002 43.9713 54.1793 45.1847 50.3657 45.1847L1.61787 45.1847 1.61787 44.5876 4.52617 41.8141 18.721 28.2164C20.8589 26.117 21.9953 24.268 22.2457 21.4367 22.3227 20.6856 22.3805 19.8766 22.2457 19.1255 21.9182 16.352 20.8204 14.1756 18.8751 12.4229L18.8173 12.3844C16.8913 10.5932 14.5801 9.7072 11.7488 9.66868 11.691 9.66868 11.6332 9.66868 11.5562 9.66868 8.6864 9.66868 6.22108 10.651 4.06393 12.6925 4.04467 12.7118 4.02541 12.7311 3.98689 12.7503 4.58395 11.8644 5.29659 11.0169 6.12478 10.2272 8.89827 7.60782 12.1918 6.29812 15.909 6.29812L16.1401 6.29812C19.7996 6.3559 22.9198 7.5693 25.4429 9.91906 28.0045 12.211 29.5068 15.1771 29.9305 18.7595L29.9305 18.7981C29.9883 19.4337 29.9883 19.9922 29.9883 20.5315 29.9883 24.2487 28.4475 27.6578 25.4044 30.6432L13.7326 41.8334 13.7133 41.8334C13.7133 41.8527 13.7133 41.8527 13.7133 41.8527L54.3334 41.8527C54.3334 41.8527 54.5067 41.8527 54.5067 41.8527 57.5691 41.8527 60.4967 40.8704 62.9427 39.0407 63.7709 38.4243 64.5221 37.7117 65.1962 36.922L65.1962 36.922Z" fill="#FFFFFF" transform="matrix(1 0 0 1.00278 57 156.007)"/><path d="M47.4382 24.4991 45.2232 30.3543 46.0514 30.3543 46.5522 28.9675 49.1716 28.9675 49.6724 30.3543 50.5005 30.3543 48.3049 24.4991 47.4382 24.4991 47.4382 24.4991ZM46.7833 28.3704 47.8811 25.3658 48.979 28.3704 46.8026 28.3704Z" fill="#FFFFFF" transform="matrix(1 0 0 1.00278 57 156.007)"/><path d="M55.1423 29.1023 52.0606 24.3836 51.2902 24.3836 51.2902 30.335 52.0606 30.335 52.0606 25.6355 55.1423 30.335 55.9127 30.335 55.9127 24.3836 55.1423 24.3836 55.1423 29.1023Z" fill="#FFFFFF" transform="matrix(1 0 0 1.00278 57 156.007)"/><path d="M61.0167 29.1023 57.9158 24.3836 57.1454 24.3836 57.1454 30.335 57.9158 30.335 57.9158 25.6355 60.6893 29.8728 61.0167 30.335 61.7871 30.335 61.7871 24.3836 61.0167 24.3836 61.0167 29.1023Z" fill="#FFFFFF" transform="matrix(1 0 0 1.00278 57 156.007)"/><path d="M63.0198 24.3836 63.7902 24.3836 63.7902 30.335 63.0198 30.335Z" fill="#FFFFFF" transform="matrix(1 0 0 1.00278 57 156.007)"/></g></svg>